<?xml version="1.0" encoding="utf-8"?>
<!-- Generator: Adobe Illustrator 24.0.1, SVG Export Plug-In . SVG Version: 6.00 Build 0)  -->
<svg version="1.1" xmlns="http://www.w3.org/2000/svg" xmlns:xlink="http://www.w3.org/1999/xlink" x="0px" y="0px"
	 viewBox="0 0 227.85 297.11" style="enable-background:new 0 0 227.85 297.11;" xml:space="preserve">
<style type="text/css">
	.st0{fill:#D8C1A0;stroke:#020202;stroke-width:0.5;stroke-miterlimit:10;}
	.st1{fill:#3A0C21;stroke:#020202;stroke-width:0.5;stroke-miterlimit:10;}
	.st2{fill:#38270C;stroke:#020202;stroke-width:0.5;stroke-miterlimit:10;}
	.st3{fill:#2D1F0A;}
	.st4{fill:#330B1F;stroke:#020202;stroke-width:0.5;stroke-miterlimit:10;}
	.st5{fill:#330B1F;}
	.st6{fill:#E5A95A;stroke:#020202;stroke-width:0.5;stroke-miterlimit:10;}
	.st7{fill:#14255B;stroke:#020202;stroke-width:0.5;stroke-miterlimit:10;}
	.st8{fill:#C98F4B;}
	.st9{fill:#1D3570;}
	.st10{fill:#EFB56F;}
	.st11{fill:#303030;stroke:#020202;stroke-width:0.5;stroke-miterlimit:10;}
	.st12{fill:#0B4413;stroke:#020202;stroke-width:0.5;stroke-miterlimit:10;}
	.st13{fill:#DCE0B8;}
	.st14{fill:#444444;}
	.st15{fill:#232322;}
	.st16{fill:#A35131;stroke:#020202;stroke-width:0.5;stroke-miterlimit:10;}
	.st17{fill:#91452D;}
	.st18{fill:#AD583D;}
	.st19{fill:#93452C;stroke:#020202;stroke-width:0.5;stroke-miterlimit:10;}
	.st20{fill:#634818;stroke:#020202;stroke-width:0.5;stroke-miterlimit:10;}
	.st21{fill:#07300A;stroke:#020202;stroke-width:0.5;stroke-miterlimit:10;}
	.st22{fill:#353535;stroke:#020202;stroke-width:0.5;stroke-miterlimit:10;}
	.st23{fill:url(#SVGID_1_);}
	.st24{fill:url(#SVGID_2_);}
	.st25{fill:#0C1B42;}
	.st26{fill:#8C3D25;stroke:#020202;stroke-width:0.5;stroke-miterlimit:10;}
	.st27{fill:none;stroke:#020202;stroke-miterlimit:10;}
	.st28{fill:#725321;}
	.st29{fill:#5B4116;}
	.st30{fill:none;stroke:#020202;stroke-width:0.5;stroke-miterlimit:10;}
	.st31{fill:#052306;}
	.st32{fill:url(#SVGID_3_);}
	.st33{fill:url(#SVGID_4_);}
	.st34{opacity:0.37;fill:#838483;}
	.st35{fill:#E7E8CF;}
</style>
<g id="Camada_2">
	<polygon class="st0" points="8.89,261.12 8.89,220.93 13.67,218.05 75.4,218.05 72.46,265.22 45.34,265.22 	"/>
	<polygon class="st0" points="217.55,255.27 218.28,277.82 202.33,280.25 193.67,265.22 198.46,256.1 	"/>
	<path id="bookBaixo" class="st1" d="M35.85,270.68c0,0,12.86-2.89,19.18-3.87c1.37-0.21,143.83-12.61,145.56-12.61
		c2.13,0,16.18-0.99,16.94-0.68c0.76,0.3,2.2,1.67,1.14,1.97c-1.06,0.3-16.78,2.28-16.78,2.28s-5.77,2.28-5.01,10.18
		s7.44,10.94,8.66,11.09c1.22,0.15,12.76-1.22,12.76-1.22s1.82,0.33,1.97,1.23c0.15,0.9-14.43,2.11-14.43,2.11L40.1,293.47
		c0,0-7.14-1.22-7.59-10.48C32.05,273.72,35.85,270.68,35.85,270.68z"/>
	<path id="bookCima" class="st2" d="M145.14,206.89c0,0,47.39-5.24,51.49-5.24c4.1,0,10.94,6.61,11.39,25.06
		c0.46,18.46-0.69,27.72-4.32,28.07S75.98,268.39,67.95,267.6c-8.03-0.79-58.61-3.75-60.21-3.75s-3.65-2.28-2.73-2.73
		s56.28,2.51,60.15,2.51c3.87,0,5.47-14.13,5.7-23.01c0.23-8.89-2.28-21.42-7.52-21.65c-5.24-0.23-55.59,2.05-56.73,2.05
		s-0.46-3.65,0.68-3.65s83.62-6.84,84.99-6.84S145.14,206.89,145.14,206.89z"/>
	<path class="st3" d="M207.8,226.2L71.37,238.4c0.02,0.81,0.06,1.61,0,2.37c-0.91,11.96-2.79,23.07-5.7,23.01
		c-3.87-0.08-59.57-2.88-60.48-2.42c-0.91,0.46,1.18,2.26,2.78,2.26s52.34,3.2,60.37,3.99s131.61-12.8,135.24-13.15
		c3.64-0.35,4.63-9.08,4.18-27.53C207.75,226.7,207.81,226.43,207.8,226.2z"/>
	<path class="st3" d="M84.15,211.97c-2.13,1.41-1.44,3.24,1.06,3.92c2.51,0.68,7.52,0.66,11.96,0.67s6.97-0.87,8.32,0
		c1.35,0.87-20.93,21.12-20.73,21.89c0.2,0.77,34.12-5.97,34.12-5.97l13.27-15.45l-3.04,6.62c0,0,15.57,12.65,15.91,12.7
		c0.34,0.05,20.16-2.57,20.16-2.57l-40.27-33.95L84.15,211.97"/>
	<g>
		<path class="st4" d="M220.53,277.59c0,0-6.56,0.78-10.31,1.09v2.06c4.05-0.38,12.4-1.24,12.28-1.92
			C222.36,277.92,220.53,277.59,220.53,277.59z"/>
	</g>
	<path class="st5" d="M220.4,277.61c0,0-12.83,1.74-15.36,1.26c-0.58-0.11-2.56-0.96-4.42-2.61c-32.21,2.85-120.89,8.02-155.39,10.6
		c-1.39,0.1-4.59-4.76-3.61-11.47c0.67-4.53,15.8-5.63,16.82-5.05c3.49,1.97,7.76,6.57,8.52,9.46c0.76,2.89,5,0.37,5.42-0.23
		c0.42-0.61,5.4-5.8,7.37-6.53c1.97-0.73,118.34-16.68,119.82-16.93c4.35-0.75,5.49-1.09,5.4-1.49c-0.15,0.01-0.75,0.33-0.91,0.35
		C185.21,256.9,82.3,268.02,69.49,267.9c-1.14-0.01-8.24-0.49-12.72-0.9c-1.48-0.09-2.22,0.14-2.32,0.15
		c-2.11,0.33-3.9,0.72-6.75,1.29c-5.56,0.87-9.74,1.75-11.53,2.39c-0.07,0.02-0.11,0.09-0.14,0.19c-0.08-0.03-0.16-0.02-0.22,0.04
		c-3.61,3.76-3.99,14.58-1.4,17.92c2.26,3.54,5.21,4.18,5.21,4.18l165.72-12.3c0,0,17.32-1.14,17.17-2.04
		C222.36,277.92,220.4,277.61,220.4,277.61z"/>
</g>
<g id="Camada_3">
	<path id="perna_1_" class="st6" d="M180.06,232.48c-15.52-12.07-37.73-28.78-37.73-28.78s-2.58-0.3-5.36-0.76
		c-2.78-0.46-5.43,0.76-5.43,0.76s-8.51,12-8.05,13.22c0.44,1.19,32.03,25.22,40.14,31.72L180.06,232.48z"/>
	<path id="sap" class="st7" d="M180.06,232.48c8.84,6.87,14.92,11.78,14.98,12.38c0.15,1.67-8.05,7.44-10.78,7.75
		c-2.73,0.3-15.22,1.87-20.62-3.98C162.98,247.92,180.06,232.48,180.06,232.48z"/>
	<path class="st8" d="M129.93,216.56c-1.01,1.69-1.72,3.07-1.59,3.42c0.39,1.05,27.88,22.36,34.94,28.12l3.68-3.68
		C158.53,239.77,136.12,221.54,129.93,216.56z"/>
	<path id="perna" class="st6" d="M98.59,255.2c14.81-14.45,33.99-33.39,34.93-34.79c1.52-2.28,4.56-7.14,3.04-10.94
		s-6.68-10.48-14.28-8.51s-7.73,3.19-9.77,5.77s-2.23,7.75-7.24,12.61c0,0-16.9,16.51-21.11,20.89L98.59,255.2z"/>
	<path id="sap_1_" class="st7" d="M84.15,240.12c-0.48,0.5-0.65,0.96-0.76,1.1c-1.06,1.37-9.57,11.7-6.84,19.14
		c2.73,7.44,3.95,11.09,4.86,11.24c0.14,0.02,1.33-1.07,3.3-2.95c3.07-2.94,8-7.81,13.68-13.35L84.15,240.12z"/>
	<path class="st9" d="M95.1,252.13c-2.87,3.09-11.23,12.25-15.34,16.74c0.71,1.72,1.23,2.62,1.66,2.69c0.14,0.02,1.33-1.07,3.3-2.95
		c3.07-2.94,7.81-7.63,13.49-13.17L95.1,252.13z"/>
	<path id="pe_san_1_" class="st6" d="M96.08,257.55l-11.25-10.19c0,0-1.37,3.42-0.68,4.78c0.68,1.37,7.63,9.61,7.63,9.61
		L96.08,257.55z"/>
	<path class="st10" d="M177.38,234.64l2.19-2.15c-15.52-12.07-37.73-28.78-37.73-28.78s-1.8-0.21-4.01-0.55
		C145.18,208.52,170.11,227.22,177.38,234.64z"/>
	<path class="st9" d="M183.8,235.71c-1.21-0.95-2.38-1.97-3.74-3.02c0,0-3.76,3.52-7.79,7.31
		C175.02,239.01,179.98,237.13,183.8,235.71z"/>
	<path class="st8" d="M109.54,223.14c9.57-9.12,7.2-14.27,6.77-20.3c-2,1.05-2.54,2.12-3.79,3.71c-2.04,2.58-2.23,7.75-7.24,12.61
		c0,0-16.9,16.51-21.11,20.89l3.07,3.18C92.05,239.04,101.68,230.63,109.54,223.14z"/>
	<path id="pe_san" class="st6" d="M182.84,234.64l-10.13,10.13c0,0,4.1,2.16,5.92,0.8c1.82-1.37,7.79-8.1,7.79-8.1L182.84,234.64z"
		/>
	<path id="saia" class="st11" d="M109.3,213.72c0,0-15.28,0.61-20.14,0c-4.86-0.61-10.78-4.56-13.15-13.12
		c-2.44-8.84,3.12-15.74,3.12-15.74s0.76-0.38,1.52,0c0.76,0.38,1.75,0.84,3.49,0.91c1.75,0.08,15.57-1.06,21.42-0.08
		c5.85,0.99,14.2,2.81,15.42,3.34c1.22,0.53,6.61,3.04,10.86,6.08c4.25,3.04,11.54,9.38,11.54,9.38L109.3,213.72z"/>
	<path class="st6" d="M156.61,144.61c-0.46,0.15-5.32,0-7.75,2.58c-2.43,2.58-3.65,4.25-4.25,4.86c-0.61,0.61-4.74,2.49-4.74,2.49
		l10.36,0.85l1.37-1.82L156.61,144.61z"/>
	<polygon class="st12" points="162.99,126.84 175.17,129.76 180.15,123.47 171.26,147.94 149.62,156.15 	"/>
	<path class="st6" d="M117.11,127.65l-6.83-1.94c0,0-9-8.09-7.64-9.15c1.36-1.06,3.88-7.48,3.31-7.71
		c-0.57-0.23-3.99-1.94-9.57-4.56c-5.58-2.62-13.9-13.44-13.9-13.44L81,77.86l1.14-28.25l30.25-5.01l57.92,2.96
		c0,0,11.28,12.76,5.01,20.28c-6.27,7.52-4.1,13.78-5.92,27.57s-17.54,19.48-25.52,21.15c-7.97,1.67-24.84-4.18-24.84-4.18
		l0.64,7.46L117.11,127.65z"/>
	<path class="st13" d="M156.3,84.59c-0.06-0.52-0.79-1.14-1.25-3.25c-0.46-2.11,1.19-7.81,1.7-7.98c0.51-0.17,7.29-3.46,7.52-3.46
		c0.23,0,4.77,1.2,5.54,1.74s1.01,2.02,1.04,3.1c0.03,1.08-0.91,6.51-1.26,7.26c-0.34,0.75-0.95,2.3-2.76,2.61
		C165.03,84.92,156.3,84.59,156.3,84.59z"/>
	<path class="st13" d="M138.08,73.33c0,0,2.45,5.81,1.99,8.19c-0.46,2.41-2.26,3.47-2.64,3.2c-0.38-0.27-11.77,0.78-13.1-0.3
		c-1.33-1.08-8.13-3.61-8.13-3.61s-4.14-4.23-4.84-4.85c-1.33-1.2,0.67-5.49,0.95-5.61c0.28-0.11,4.34-2.83,7.13-3.27
		c2.79-0.44,6.78,0.93,7.8,1.27C128.28,68.7,138.08,73.33,138.08,73.33z"/>
	<path class="st14" d="M112.96,188.6c5.81,0.51,9.06,2.22,14.13,4.96c4.22,2.28,11.55,8.92,14.65,11.12l1.31-0.36
		c0,0-7.28-6.34-11.54-9.38c-4.25-3.04-9.65-5.54-10.86-6.08c-0.8-0.35-4.72-1.26-8.96-2.13
		C110.84,187.63,110.37,188.37,112.96,188.6z"/>
	<path class="st15" d="M126.26,208.86c-1.7,0.46-8.21-2.7-12.54-3.38c-4.33-0.68-11.96,2.28-19.03,1.14s-11.39-4.44-12.19-9
		c-0.59-3.39,1.14-8.37,2.35-12c-0.17,0-0.32,0-0.42,0c-1.75-0.08-2.73-0.53-3.49-0.91c-0.76-0.38-1.52,0-1.52,0
		s-5.56,6.9-3.12,15.74c2.36,8.56,8.29,12.51,13.15,13.12c4.86,0.61,19.94-0.21,19.94-0.21l16.87-4.3V208.86z"/>
	<path id="blusa" class="st16" d="M86.13,139.14c0,0,0.15,9.72,0,13.82c-0.15,4.1-1.22,9.11-1.22,9.11s-2.13,1.22-2.13,2.13
		s-0.15,5.01-0.76,7.29c-0.61,2.28-2.43,6.23-2.43,7.9c0,1.67-3.34,1.06-3.19,2.13c0.15,1.06,0.61,3,1.67,3.17s9.87,2.75,9.87,2.75
		h14.73c0,0,14.13,1.22,14.58,1.37c0.46,0.15,5.2,0.91,5.2,0.91s-2.92-2.46-3.53-5.03c-0.61-2.57,0.15-5.3,0.15-5.76
		c0-0.46-0.3-1.37-1.22-1.82c-0.91-0.46-0.3-1.37-0.3-1.37l11.54-20.2c0,0-1.67-19.75-1.52-22.03c0.15-2.28-0.15-8.35-7.9-13.67
		c0,0-1.9,6.46-3.72,7.06c0,0-9.8-1.9-13.22-9.49c0,0-9.55-0.22-13.29,6.06C86.91,127.76,86.07,127.75,86.13,139.14z"/>
	<path class="st17" d="M88.1,145.14c0,0,10.63,14.46,10.75,15.29s-0.74,1.15-0.74,1.62c0,0.48,3.12,3.82,3.12,3.82
		s-0.23,2.13,0.52,2.96c0.76,0.84,5.54,5.89,6.08,6.33s3.42,0.17,3.95,0c0.53-0.17,0.85-2.83,0.85-2.83l-22.42-31.34h-2.1
		L88.1,145.14z"/>
	<path class="st18" d="M123.56,124.52c2.16,3.65,3.19,2.96,3.19,9.8c0,5.85,1.08,19.03,1.4,22.72l0.85-1.49
		c0,0-1.67-19.75-1.52-22.03c0.15-2.28,0.09-7.96-7.65-13.28c0,0-0.01,0.03-0.02,0.08C120.94,121.33,122.3,122.4,123.56,124.52z"/>
	<path class="st8" d="M151.85,150.64l-0.87,2.06c0,0-5.18,1.52-5.27,1.54s-6.1,0.6-6.1,0.6l2.65-1.25l2.42-1.27L151.85,150.64z"/>
	<path class="st6" d="M121.16,157.26c0,0,17.77-2.58,22.03-2.73c4.25-0.15,11.39-2.73,13.37-3.95c1.97-1.22,4.41-5.01,6.68-5.62
		c2.28-0.61,5.62-2.43,6.99-2.28c1.37,0.15,0.15,10.94-3.04,13.06c-3.19,2.13-5.62,2.43-7.75,3.65
		c-2.13,1.22-28.71,13.37-32.51,14.28s-11.34,3.19-15.24,0.76C107.8,172,121.16,157.26,121.16,157.26z"/>
	<path class="st8" d="M161.24,157.55l-3.06,1.43c0,0-23.92,9.62-31.67,12.43c-6.47,2.34-12.93,2.09-15.53,1.66
		c0.05,0.54,0.26,0.97,0.69,1.24c3.9,2.43,11.44,0.15,15.24-0.76c3.8-0.91,30.38-13.06,32.51-14.28c0.94-0.54,1.7-0.94,2.8-1.36
		C162,158,161.24,157.55,161.24,157.55z"/>
	<path class="st19" d="M117.46,148.93c0,0,0.72-0.67,1.78-0.22c1.06,0.46,0.61,0.3,0.91,1.97c0.3,1.67,1.67,2.28,2.28,2.89
		c0.61,0.61,0.6,2.14-0.46,3.34c-1.06,1.2-8.83,16.41-8.83,16.41s-1.8,2.89-5.14,0s-3.95-4.25-4.56-4.71
		c-0.61-0.46-1.92-3.42,0.06-4.33L117.46,148.93z"/>
	<path class="st18" d="M86.25,153.09c-0.08,2.29-0.45,4.86-0.76,6.69v0c2.58-4.55,2.43-17.93,2.28-21.12
		c-0.15-3.19-0.15-7.75,3.49-14.15c2.2-3.87,6.57-5.88,9.68-6.87c-2.99,0.29-8.66,1.44-11.35,5.95c-2.56,4.29-3.39,4.28-3.34,15.67
		C86.25,139.26,86.4,148.99,86.25,153.09z"/>
	<path class="st16" d="M103.44,121.06c0,0,5.47,14.43,7.44,18.08c1.97,3.65,6.95,9.87,6.95,9.87l-14.34,15.27
		c0,0-16.54-23.47-16.99-26.77"/>
	<path class="st20" d="M58.22,54.86c0,0-2.13-5.07-5.62-6.9c-3.49-1.82-11.09-8.63-19.14-6.44C25.41,43.71,9.3,54.86,14.62,70.7
		c5.32,15.84,7.75,22.52,1.22,24.19c-6.53,1.67-10.94-5.01-5.47-9.42c0,0-9.42,3.65-4.71,11.39s18.08,6.53,20.2,0
		c0,0,1.67,6.23,3.04,8.96s0.76,11.7-5.47,16.86s-5.77,8.05-5.77,8.05s5.77-4.9,8.2-6.17c0,0-4.66,9.36,5.42,25.92
		c0,0-4.3-10.78,0-20.51c4.3-9.72,8.1-8.96,10.99-15.65c2.89-6.68,2.89-11.09,2.89-11.09s1.52,2.89,4.1,2.89c0,0-2.28-5.77-1.37-7.9
		c0.91-2.13-1.52-5.16-1.67-9.11c-0.15-3.95,2.73-11.7,6.53-14.43s8.02-4.03,8.02-4.03L58.22,54.86z"/>
	<path class="st21" d="M64.56,72.76c0,0-1.67,3.04-5.32-1.37c-3.65-4.41-3.65-7.75-2.89-10.94s2.03-3.19,3.9-3.34
		c1.87-0.15,2.93-2.28,5.06-2.43c2.13-0.15,4.71,6.99,4.71,6.99l0.35,11.56C70.37,73.23,66.53,74.13,64.56,72.76z"/>
	<path class="st20" d="M100.56,53.01c0,0,1.06,1.37,5.47,1.22c4.41-0.15,17.01-3.19,33.11-2.73s27.65,4.71,31.9,8.05
		c4.25,3.34,4.83,4.25,5.3,6.76c0.47,2.51,4.42-4.02,4.72-4.94s6.84-4.68,3.49-16.77s-11.54-13-11.54-13s-5.62-13.97-24.3-16.1
		s-26.73-1.37-30.68-2.43c-3.95-1.06-13.82-2.73-19.75,0s-7.9,6.23-7.9,6.23S74.43,24.91,69.72,36.3s-3.95,17.47-1.82,28.56
		c2.13,11.09,9.88,26.46,28.48,39.43c0,0-7.37-6.93-9.04-12.4c-1.67-5.47-2.13-14.43-1.97-18.99c0,0,0.15,6.53,2.28,8.2
		c2.13,1.67,6.23,2.58,9.11,2.28c0,0-3.8-1.37-6.23-5.92s-1.82-11.09-0.46-12.15c1.37-1.06,6.53-3.19,8.66-6.23
		S100.56,53.01,100.56,53.01z"/>
	<path class="st22" d="M111.83,56.57c0,0,18.47,1.61,21.49,3.27c3.02,1.66,8.89,11.95,8.89,11.95s-6.27-6.67-9.84-8.91
		S111.83,56.57,111.83,56.57z"/>
	<path class="st22" d="M152.99,70.68c0,0,3.13-5.43,5.78-6.48c2.64-1.05,12.09-1.18,12.09-1.18s-9.29,1.79-11.01,2.87
		S152.99,70.68,152.99,70.68z"/>
	<path class="st22" d="M111.04,70.48c0.76-0.15,9.27-4.72,10.78-4.79c1.52-0.07,14.28,4.94,15.8,7.22c0,0-12.3-5.76-16.56-5.47
		C116.8,67.74,111.04,70.48,111.04,70.48z"/>
	<path class="st22" d="M156.15,73.97c0,0,6.84-4.95,8.2-4.68c1.37,0.27,5.47,2.33,5.47,2.33s-4-0.85-5.62-1.3
		C162.58,69.87,156.15,73.97,156.15,73.97z"/>
	<path class="st22" d="M156.15,84.61c0,0,0.05-0.01,0.15-0.02c1.06-0.11,7.4-0.73,8.58-0.59c1.29,0.15,2.81,0.61,2.81,0.61
		s-2.7,0-4.44,0C161.51,84.61,156.15,84.61,156.15,84.61z"/>
	<path class="st22" d="M144.61,105.11c-0.06-0.06,2.81-3.8,4.1-3.8s4.1,3.42,4.1,3.42s-3.42-2.81-4.1-2.73
		S144.72,105.23,144.61,105.11z"/>
	<linearGradient id="SVGID_1_" gradientUnits="userSpaceOnUse" x1="127.9019" y1="87.4873" x2="130.0285" y2="75.7911">
		<stop  offset="0" style="stop-color:#313F00"/>
		<stop  offset="1" style="stop-color:#7CB500"/>
	</linearGradient>
	<path class="st23" d="M122.44,83.05c0,0-0.81-2.74-0.27-5.17c0.53-2.43,2.24-4.48,5.01-4.56c2.77-0.08,7.48,1.78,8.05,3.68
		c0.82,2.74,0.72,7.41,0.72,7.41c0,0-5.73,0.53-5.73,0.53L122.44,83.05z"/>
	<linearGradient id="SVGID_2_" gradientUnits="userSpaceOnUse" x1="162.8156" y1="86.4825" x2="162.1321" y2="76.1534">
		<stop  offset="0" style="stop-color:#313F00"/>
		<stop  offset="1" style="stop-color:#7CB500"/>
	</linearGradient>
	<path class="st24" d="M167.55,84.29c0,0,0.77-5.06-0.37-6.83c-1.14-1.77-2.28-3.02-5.04-3.16c-2.76-0.14-4.33,1.51-4.67,2.82
		c-0.34,1.31-0.2,7.17-0.2,7.17H167.55z"/>
	<path class="st20" d="M175.99,64.89c-0.63,0.72-2.22,4.4-1.61,6.74c0.63,2.44,1.99,4.17,3.52,4.83c0.94,0.41,4.04,0.3,4.04,0.1
		c0.04-0.41-3.16-0.5-4.6-2.58c-0.85-1.23-0.79-2.54-0.38-4.48c0.45-2.14,1.83-4.42,1.83-4.42"/>
	<path class="st25" d="M81,254.65c0.3-5.39,3.24-9.49,5.58-11.95l-2.43-2.59c-0.48,0.5-0.65,0.96-0.76,1.1
		c-1.06,1.37-9.57,11.7-6.84,19.14c2.73,7.44,3.95,11.09,4.86,11.24C81.52,271.61,80.61,261.63,81,254.65z"/>
	<path class="st25" d="M192.9,242.75c-1.97,1.67-5.91,2.75-13.2,3.59c-6.06,0.69-9.84-0.44-12.17-1.71c-2.28,2.25-3.9,4-3.67,4.21
		c6.38,5.75,17.81,3.85,20.55,3.55c2.73-0.3,10.41-5.81,10.63-7.51C195.07,244.66,194.25,243.91,192.9,242.75z"/>
	<path class="st10" d="M122.44,223.69c-0.6-0.6-6.22,4.95-10.07,8.81c-3.85,3.85-9.98,8.91-9.24,9.58
		c0.63,0.56,6.92-5.56,10.11-8.58C116.43,230.46,123.04,224.29,122.44,223.69z"/>
	<path class="st15" d="M118.88,193.67c0,0,9.97,5.18,12.02,7.69c2.05,2.51,2.62,3.08,2.62,3.08s-0.11-2.46,0.28-3.25
		C134.2,200.41,123.38,195.04,118.88,193.67z"/>
	<path class="st14" d="M131.41,202.83c-0.55-2.9-7.86-6.09-9-6.77s-5.87-2.73-6.72-3.08c-0.85-0.34-1.99-1.08-1.54,0
		c0.46,1.08,3.87,2.73,5.18,3.36s4.16,2.28,5.58,3.47c1.42,1.2,3.21,2.91,4.2,3.34C130.1,203.58,131.62,203.95,131.41,202.83z"/>
	<path class="st26" d="M88.1,179.77c0,0,16.03-1.37,20.2-2.73c4.18-1.37,3.49-1.88,3.49-1.88"/>
	<path class="st26" d="M84.19,163.25c6.27,1.82,16.54-2.82,16.54-2.82"/>
	<path class="st26" d="M118.18,177.76c-0.23,0.3-1.52,1.63-4.06,1.63"/>
	<path class="st16" d="M123.72,133.22c0.23,1.9,2.52,11.21,2.81,12.38c0.99,4.03-3.7,9.19-3.7,9.19"/>
	<path class="st17" d="M87.26,138.84c3.24,6.46,16.27,24.95,16.27,24.95l6.33-6.74C103.04,151.54,92.9,143.36,87.26,138.84z"/>
	<path class="st27" d="M108.01,56.76c-0.68,2.43-0.78,5.54-5.8,3.9"/>
	<path class="st27" d="M110.58,57.28c-0.33,2.51-1.45,5.4,3.8,5.86"/>
	<path class="st27" d="M108.14,69.26c0.68-2.43,0.78-5.54,5.8-3.9"/>
	<path class="st27" d="M105.57,68.74c0.33-2.51,1.45-5.4-3.8-5.86"/>
	<path class="st17" d="M86.2,183.42c0.53,1.14,3.86,2.08,6.6,1.99c2.74-0.08,8.73-0.4,12.18,0.2c3.45,0.6,16.19,3.51,16.84,3.81
		c0.64,0.3-1.67-0.97-2.28-2.68s-19.9-2.71-22.94-2.56C93.57,184.33,86.2,183.42,86.2,183.42z"/>
	<path class="st17" d="M118.33,179.39c0.26-0.22-1.96,1.46-3.66,1.52s-2.83,0.21-2.83,0.21s-0.02,0.57,2.28,1.06
		s3.13-0.66,3.66,0.09c0.53,0.76,0.4,0.89,0.4,0.89S118.1,179.58,118.33,179.39z"/>
	<path class="st17" d="M85.04,166.27c0.17,0.11,8,0.36,11.39-0.8c3.39-1.16,2.96-1.2,2.96-1.2l1.33,3.42c0,0-1.95,0.17-4.92,0
		c-2.96-0.17-5.81,0.06-7.46-0.28C86.7,167.07,85.04,166.27,85.04,166.27z"/>
	<path class="st17" d="M117.4,136.25c-0.23,1.2-1.08,8.26-1.14,9.46s-1.54-4.44-1.48-4.96C114.84,140.24,117.4,136.25,117.4,136.25z
		"/>
	<path class="st17" d="M126.32,149.61c0,0,0.47,6.36,0.4,6.4c-0.08,0.04-4.15,0.56-4.15,0.56l0.28-0.61l0.2-0.57l0.06-0.51l1.8-2.61
		L126.32,149.61z"/>
	<path class="st8" d="M161.32,147.72c-0.31,0.31-1.35,2.34-2.75,2.8c-1.4,0.47,1.69,0.18,1.77-0.36
		C160.41,149.62,161.32,147.72,161.32,147.72z"/>
	<path class="st8" d="M106.15,109.36c0,0-0.37,3.54,1.85,5.42s11.45,5.03,11.45,5.03l-0.61-7.4l-12.6-3.48L106.15,109.36z"/>
	<path class="st8" d="M155.51,73.33c-0.19,0.3-1.08-1.76,0.34-3.09c1.42-1.33,4.22-2.28,4.22-2.28S156.99,70.95,155.51,73.33z"/>
	<path class="st8" d="M138.99,72.91c0,0,1.22-2.6,0-3.44c-1.22-0.84-5.7-3.67-5.7-3.67s3.36,3.06,3.82,4.05
		C137.56,70.84,138.99,72.91,138.99,72.91z"/>
	<path class="st28" d="M133.29,45.67c-5.47-2.3-19.22-1.62-25.15-3.14c-5.94-1.52-9.1-11.7-8.64-13.37c0,0,4.63,8.28,6.99,9.8
		c2.35,1.52,7.67,2.58,11.92,2.73C122.66,41.85,130.94,42.88,133.29,45.67z"/>
	<path class="st29" d="M177.21,62.88c0,0,0.36-0.75-2.96-6.3s-24.47-14.95-43.91-16.32c-4.85-0.34-12.15-2.05-16.4-7.75
		c0,0,4.89,3.82,11.27,4.91c6.38,1.09,22,0.98,29.85,4.74c7.86,3.76,15.75,8.25,17.96,11.16C176.3,57.65,177.21,62.88,177.21,62.88z
		"/>
	<path class="st20" d="M93.92,18.38c2.08-1.97,6.81-4.56,9.92-3.34s8.29,5.77,10.1,7.29c1.81,1.52,6.54,3.65,8.05,4.1"/>
	<path class="st28" d="M120.14,20.58c0,0,1,2.36,3.88,4.56c2.89,2.2,8.28,4.25,13.29,4.94c5.01,0.68,15.34,1.82,19.59,3.27
		c4.25,1.44,7.75,2.13,11.16,5.39c3.42,3.27,9.87,7.44,12.38,11.09c2.51,3.65,3.3,4.85,3.3,4.85s-0.47-3.57-5.71-9.01
		c-5.23-5.44-8.07-7.91-9.58-8.9s-6.34-3.69-9.46-4.41c-3.11-0.72-10.8-2.3-13.44-2.52c-2.64-0.22-9.88-1.79-11.1-2.09
		c-1.21-0.3-3.04-0.67-4.97-1.42c-1.93-0.76-4.83-2.02-6.94-3.99S120.14,20.58,120.14,20.58z"/>
	<path class="st30" d="M181.06,61.37c0,0,5.72-3.84,0.88-10.67c-3.87-5.48-10.98-14.01-20.02-17.43
		c-9.04-3.42-30.53-3.95-37.59-9.57s-12.66-8.35-16.32-8.66"/>
	<path class="st28" d="M138.91,20.57c1.98,1.3,6.53,2.75,8.89,3.05c2.35,0.3,2.05,0.3,4.71,1.22c2.66,0.91,8.13,3.8,9.87,4.33
		c1.75,0.53,4.41,1.82,6.38,2.43c1.97,0.61,3.04,0.53,6,1.59c2.96,1.06,5.39,4.1,6.76,6c1.37,1.9,3.19,7.75,3.42,9.57
		s0.57,2.96,0.57,2.96s0.12-2.01,0-2.45c-0.12-0.44-0.26-2.69-0.51-3.32s-1.78-5.52-2.38-6.38c-0.6-0.86-0.87-1.83-2.02-3.11
		s-2.92-2.93-3.93-3.47c-1.01-0.54-2.19-1.3-4.21-1.52s-12.12-4.57-12.7-4.84c-0.59-0.27-5.38-2.59-7.8-3.22
		c-2.42-0.63-3.79-0.47-6.88-1.4S138.91,20.57,138.91,20.57z"/>
	<path class="st30" d="M114.38,13.06c0,0,9,1.37,11.48,2.89s13.79,5.32,21.08,6.38c7.29,1.06,9.2,3.04,20.74,7.75
		c2.33,0.95,5.32,1.52,5.32,1.52"/>
	<path class="st28" d="M130.56,14.25c0,0,14.97,1.35,20.27,3.06c5.3,1.71,15.09,6.38,17.43,8.72s3.85,4.37,3.85,4.37
		s-0.87-2.32-3.69-5.47c-2.75-3.08-6.75-5.5-8.79-6.39c-2.04-0.88-7.35-2.46-12.09-3.01C143.14,15.01,130.56,14.25,130.56,14.25z"/>
	<path class="st29" d="M105.12,54.03c0.85,0.07,2.06-0.1,3.8-0.3c1.74-0.2,6.68-0.74,10.08-1.43c7.93-1.62,23.1-1.22,22.1-0.97
		c0,0-3.77-1.36-8.63-2.27c-4.86-0.91-26.89-0.61-31.75-2.2c-4.86-1.59-8.2-7.67-10.41-12.53s1.75-13.67,2.13-13.76
		c0,0-4.12,2.93-5.15,6.52s-2.47,7.6,0.84,13.16c3.31,5.55,7.06,10.5,11.34,12.41C102.67,54.07,105.12,54.03,105.12,54.03z"/>
	<path class="st30" d="M101.77,53.72c0,0-6.84-1.86-13.52-13.25c-5.74-9.78,1.68-17.69,1.68-17.69"/>
	<path class="st8" d="M148.71,95.39c0.46-0.76,2.63-3.8,2.63-3.8l-2.63,0.8V95.39z"/>
	<path class="st22" d="M124.33,83.7c2.69,0.47,12.23,0.76,13.29,0.76s-2.12,1.04-5.62,0.91c-3.59-0.13-6.23-0.3-7.67-0.61
		c-1.44-0.3-8.13-3.95-8.13-3.95S122.55,83.38,124.33,83.7z"/>
	<path class="st29" d="M53.45,63.89c0,0-0.59,3.63-5.6,0.36s-11.7,2.66-12.91,7.61c-1.22,4.95-2.05,8.64,1.44,13.35
		c3.49,4.71,6.68,10.97,5.62,15.89c-1.06,4.92-10.18,17.83-12.3,18.9s-2.3,22.29-2.3,22.29l3.31,7.12c0,0-1.18-4.02-1.47-7.97
		c-0.13-1.79-0.39-4.27,0.99-9.82c0.48-1.92,3.16-6.22,3.64-7.24c0.16-0.35,2.05-2.72,4.64-5.13c1.09-1.02,2.76-3.31,3.45-4.98
		s2.11-5.49,2.45-7.58c0.34-2.09,0.56-4.23,0.56-4.23s0.39,1.03,1.06,1.73c0.67,0.7,1.24,1.27,1.85,1.45
		c0.61,0.19,1.11,0.2,1.11,0.2s-1.04-2.71-1.25-3.73s-0.47-2.41-0.31-3.39c0.16-0.98,0.52-1.32,0.37-2.31
		c-0.15-0.99-0.94-2.85-1.17-3.76s-0.96-3.69-0.66-5.44c0.34-1.97,1.6-5.9,2.28-7.21c0.68-1.3,2.91-4.4,3.99-5.18
		s2.78-1.96,4.36-2.68c1.58-0.72,2.16-0.97,2.16-0.97s-0.53-0.65-1.17-1.59c-0.81-1.2-0.81-1.2-1.28-2.53
		c-0.48-1.34-0.57-3.45-0.57-3.45L53.45,63.89z"/>
	<path class="st28" d="M15.11,60.96c0.23-2.51,2.05-5.35,4.1-8.2c2.05-2.85,4.1-3.65,7.52-6.38c3.42-2.73,6.38-3.42,12.08-3.3
		c5.7,0.11,6.27,2.05,9.46,3.65c2.14,1.07,5.75,3.91,8.11,5.35c-0.91-1.24-2.08-3.14-3.48-3.87c-3.49-1.82-11.09-8.63-19.14-6.44
		c-8.05,2.19-24.24,13.01-18.92,28.85C14.23,68.8,14.89,63.46,15.11,60.96z"/>
	<path class="st28" d="M9.06,86.44c0,0-2.11,2.16-1.34,4.53c0.77,2.36,1.85,3.22,3.25,3.87s1.97,0.6,3.13,0.57s2.45-0.34,3.93-1.14
		c1.48-0.8,2.02-2.96,2.02-4.87s-1.03-5.67-1.03-5.67s3.7,4.16,2.53,7.01c-1.17,2.85-2.22,4.81-4.36,5.21s-6.44,1.65-9.03-1.22
		c-2.59-2.88-1.45-5.95-1.03-6.61"/>
	<path class="st28" d="M38.49,46.74c8.46-1.29-6.61-1.44-12.15,3.49c-5.16,4.6-6.15,10.91-4.56,16.48
		c1.3,4.55,1.67,13.94,1.67,13.94s2.33-4.62,2.2-7c-0.3-5.8-1.28-6.44-1.14-11.65c0.17-6.47,0.53-7.71,4.48-10.41
		C33.55,48.49,35.07,47.26,38.49,46.74z"/>
	<path class="st28" d="M27.76,87.6c0.23,1.75,1.79,6.8,3.61,8.97c1.82,2.16,2.43,7.25,2.51,9.79c0.08,2.54-3.34,7.56-3.34,7.56
		s1.44-2.73,1.22-6.84s-1.59-6.46-2.66-8.73s-1.59-3.11-2.51-4.94s0.23-3.27,1.22-5.92"/>
	<g>
		<path class="st28" d="M39.94,117.41c0.1-0.13,0.2-0.27,0.3-0.41C40.15,117.07,40.05,117.22,39.94,117.41z"/>
		<path class="st28" d="M52.56,72.94c-1.84,1.68-5.16,4.71-6.08,8.2s-1.75,3.95-1.37,7.37c0.38,3.42,1.9,6.38,1.75,7.86
			s-0.23,2.85-0.08,4.14c0.15,1.29,1.06,3.95,1.06,3.95s-1.9-0.76-2.28-2.51s-0.91-0.91-0.91-0.91s-0.38,4.41-0.91,6.3
			c-0.43,1.52-1.63,6.21-2.72,8.48c0.37-0.61,0.7-1.21,0.93-1.76c0.68-1.68,2.11-5.49,2.45-7.58c0.34-2.09,0.56-4.23,0.56-4.23
			s0.39,1.03,1.06,1.73c0.67,0.7,1.24,1.27,1.85,1.45c0.61,0.19,1.11,0.2,1.11,0.2s-1.04-2.71-1.25-3.73
			c-0.21-1.02-0.47-2.41-0.31-3.39s0.52-1.32,0.37-2.31c-0.15-0.99-0.94-2.85-1.17-3.76s-0.96-3.69-0.66-5.44
			c0.34-1.97,1.6-5.9,2.28-7.21c0.68-1.3,2.91-4.4,3.99-5.18s2.78-1.96,4.36-2.68c1.58-0.72,2.16-0.97,2.16-0.97
			s-0.12-0.15-0.31-0.4C56.8,70.83,54.11,71.52,52.56,72.94z"/>
	</g>
	<path class="st31" d="M60.77,59.39c0.1,2.77-0.13,4.36,0.9,6.87c1.78,4.34,2.7,6.04,2.85,6.19c0.15,0.15-0.98-0.72-1.36-0.95
		c-0.38-0.23-0.38-0.76-1.68-3.42c-0.89-1.81-0.82-1.72-1.25-4.77c-0.28-1.96-0.27-3.47-0.08-3.92c0.19-0.46,0.24-1.23,0.24-1.23
		l1.14-1.47L60.77,59.39z"/>
	<linearGradient id="SVGID_3_" gradientUnits="userSpaceOnUse" x1="129.4786" y1="85.0632" x2="129.5546" y2="76.4049">
		<stop  offset="0" style="stop-color:#000B08"/>
		<stop  offset="1" style="stop-color:#292C00"/>
	</linearGradient>
	<path class="st32" d="M125.77,83.66c0,0-0.12-2.1,0.09-3.76c0.25-2.01,1.73-4.33,3.55-4.33c1.14,0,2.73,0.99,3.11,3.04
		c0.24,1.28,0.84,5.5,0.7,5.5C132.19,84.11,125.77,83.66,125.77,83.66z"/>
	<path class="st31" d="M133.1,84.1"/>
	<linearGradient id="SVGID_4_" gradientUnits="userSpaceOnUse" x1="162.4104" y1="85.7421" x2="162.4104" y2="78.651">
		<stop  offset="0" style="stop-color:#000B08"/>
		<stop  offset="1" style="stop-color:#292C00"/>
	</linearGradient>
	<path class="st33" d="M165.59,84.29c0,0,0.01-2.21-0.17-3.64c-0.21-1.73-1.45-3.72-2.98-3.72c-0.95,0-2.29,0.85-2.61,2.61
		c-0.2,1.1-0.7,4.72-0.59,4.72C160.12,84.27,165.59,84.29,165.59,84.29z"/>
	<path class="st34" d="M111.08,73.33c0,0,7.45-1.42,9.62-1.53c2.16-0.11,11.45,1.2,13.3,2.06c1.85,0.85,5.72,4.37,5.72,4.37
		s-0.58-2-0.63-2.13c-0.04-0.13-0.97-2.73-1.02-2.76s-5.94-2.49-6.04-2.54c-0.09-0.06-5.02-1.92-5.02-1.92s-2.63-0.76-2.93-0.8
		c-0.3-0.04-1.65-0.32-1.99-0.36c-0.34-0.04-1.48-0.09-1.77,0c-0.28,0.09-1.16,0.23-1.44,0.28c-0.28,0.06-1.82,0.52-2.72,0.74
		c-0.89,0.22-2.47,0.96-2.86,1.03s-0.75,0.47-0.99,0.58c-0.24,0.11-0.54,0.9-0.7,1.33c-0.16,0.43-0.32,0.92-0.34,1.07
		C111.25,72.89,111.08,73.33,111.08,73.33z"/>
	<ellipse class="st35" cx="159.23" cy="77.84" rx="3.55" ry="0.67"/>
	<ellipse class="st35" cx="125.62" cy="77.17" rx="4.64" ry="0.89"/>
	<polygon class="st0" points="163.13,126.81 164.51,125.49 174.76,127.65 179.66,122.15 180.44,122.43 175.17,129.76 	"/>
</g>
</svg>
